<?xml version="1.0" encoding="UTF-8" standalone="no"?>
<!-- Created with Inkscape (http://www.inkscape.org/) -->
<?xml-stylesheet type="text/css" href="../css/main.css" ?>

<svg xmlns="http://www.w3.org/2000/svg" xmlns:xlink="http://www.w3.org/1999/xlink" version="1.1" viewBox="0 0 902 726">
    <g transform="matrix(2.5687423,0,0,2.5687423,-19.609274,-20.869244)" id="icon">
        <g transform="matrix(-1,0,0,1,374.09556,-0.9339282)" id="hair_and_head_right">
            <path id="right_head" d="m 160.30072,168.0791 2.22444,-2.01243 c 0.72205,-0.64049 1.53107,-1.18281 2.39785,-1.6074 0.41563,-0.20359 0.85846,-0.39038 1.16481,-0.7373 0.28386,-0.32146 0.42019,-0.75274 0.45161,-1.18044 0.0314,-0.4277 -0.0344,-0.85628 -0.11294,-1.27788 -0.16931,-0.90915 -0.4086,-1.82969 -0.9373,-2.58844 -0.49127,-0.70504 -1.22417,-1.23835 -2.04615,-1.48891 l -4.14267,-1.78242 1.65587,-0.32972 c 1.09884,-0.1402 2.18166,-0.40549 3.22086,-0.78912 0.68366,-0.25238 1.34846,-0.55584 1.98702,-0.90701 0.54571,-0.24631 1.00058,-0.68836 1.26241,-1.22679 0.35014,-0.72004 0.34375,-1.5903 0.041,-2.33152 -0.2033,-0.49773 -0.5295,-0.93682 -0.89357,-1.33244 -0.36408,-0.39561 -0.76788,-0.75228 -1.15425,-1.12615 -0.61606,-0.59614 -1.19704,-1.24951 -1.56087,-2.02575 -0.18191,-0.38812 -0.30733,-0.80475 -0.34711,-1.23153 -0.0398,-0.42679 0.008,-0.86396 0.15915,-1.26489 0.16839,-0.44534 0.46222,-0.8377 0.81857,-1.15344 0.35634,-0.31575 0.77406,-0.55722 1.21202,-0.74397 0.87591,-0.37349 1.82567,-0.53011 2.74929,-0.76174 1.90419,-0.47754 3.78473,-1.32991 5.0642,-2.81885 0.97709,-1.13705 1.55231,-2.61335 1.5988,-4.11183 0.0392,-1.26217 -0.28739,-2.51896 -0.82531,-3.66144 -0.53792,-1.14247 -1.28245,-2.17735 -2.10142,-3.13855 -1.63792,-1.9224 -3.58923,-3.57878 -5.05787,-5.63342 -1.86063,-2.60304 -2.86199,-5.73948 -3.34923,-8.90182 -0.37234,-2.41659 -0.4589,-4.89115 -0.0689,-7.30495 0.41169,-2.54808 1.34287,-4.977733 2.08166,-7.450873 0.73879,-2.473139 1.29116,-5.07192 0.91597,-7.625633 -0.1618,-1.101268 -0.49312,-2.170222 -0.70773,-3.262426 -0.21462,-1.092205 -0.30931,-2.238066 3.6e-4,-3.307214 0.30741,-1.061351 0.98861,-1.969715 1.45555,-2.97118 0.65891,-1.413198 0.88079,-2.990912 0.9588,-4.54822 0.15902,-3.174378 -0.24636,-6.346405 -0.61826,-9.50293 -0.53254,-4.519993 -1.03041,-9.160866 -3.07754,-13.22574 -2.7432,-5.447029 -7.92391,-9.199801 -13.06465,-12.481271 -4.60664,-2.940541 -9.3568,-5.689878 -14.39946,-7.796893 -8.37122,-3.497811 -17.43851,-5.168077 -26.50423,-5.521292 -6.17594,-0.240624 -12.370796,0.119875 -18.491289,0.979908 -5.690888,0.799666 -11.327233,2.032782 -16.78777,3.823928 -2.689053,0.882054 -5.339336,1.901223 -7.85671,3.194224 -4.286988,2.20193 -8.141479,5.175005 -11.66855,8.459292 -3.77325,3.51352 -7.199482,7.401593 -10.18754,11.60323 -3.1378,4.412195 -5.783966,9.155085 -8.23267,13.983864 -2.237396,4.412086 -4.320247,8.916467 -5.88239,13.61031 -0.806024,2.421898 -1.472784,4.894232 -1.89069,7.41229 -0.599355,3.611364 -0.682773,7.297913 -0.40851,10.948386 0.351133,4.67362 1.289189,9.30646 2.83709,13.73026 2.121518,6.06316 5.354889,11.66396 8.48846,17.27141 2.677942,4.79211 5.339698,9.67794 9.12662,13.65223 2.880012,3.02251 6.334159,5.43428 9.39695,8.27141 1.05461,0.97691 2.06259,2.00416 3.01936,3.07707 0.377347,1.08662 0.634366,2.21497 0.76485,3.35782 0.56932,4.9864 -1.268705,9.90844 -3.23945,14.52412 -2.016597,4.72307 -4.263214,9.45599 -7.7585,13.21858 -1.914312,2.06071 -4.159513,3.78136 -6.39537,5.48783 -2.535964,1.93552 -5.078892,3.86919 -7.7692,5.58372 -1.937145,1.23454 -3.947966,2.35346 -6.0182,3.34882 1.050291,0.1485 2.087621,0.38856 3.09637,0.71657 4.267392,1.3876 7.896216,4.31006 10.85794,7.68115 2.949975,3.35772 5.327474,7.20036 7.17177,11.27162 1.607999,3.54964 2.812544,7.26555 4.18175,10.91396 1.646367,4.38694 3.538749,8.69278 5.89459,12.74318 2.14013,3.67953 4.711459,7.193 8.11978,9.74299 2.319346,1.73525 4.97018,2.98309 7.31589,4.68254 1.746193,1.2651 3.33403,2.78651 5.279981,3.71546 0.972975,0.46447 2.03385,0.77286 3.111968,0.78173 1.078119,0.009 2.174824,-0.2967 3.026661,-0.9576 0.866925,-0.67261 1.440771,-1.68499 1.67349,-2.75728 0.227578,-1.0486 0.143058,-2.15066 -0.146397,-3.18389 -0.289455,-1.03323 -0.778449,-2.00204 -1.353829,-2.90774 -1.150759,-1.81139 -2.646732,-3.38348 -3.803854,-5.19082 -2.163345,-3.37899 -3.039281,-7.40348 -3.76576,-11.34934 -0.671727,-3.64848 -1.251179,-7.34379 -1.10454,-11.05069 0.192004,-4.85369 1.642394,-9.62493 3.97496,-13.88572 2.047986,-3.74096 4.747962,-7.07772 7.430019,-10.39368 3.370394,-4.16698 6.73703,-8.33733 10.16802,-12.45456 1.53679,-1.84417 3.09248,-3.68392 4.8721,-5.29503 1.77961,-1.61112 3.79996,-2.99607 6.06095,-3.80268 3.264,-1.16444 6.84741,-1.06612 10.27606,-0.56213 8.19133,1.20408 15.89456,4.60132 23.96922,6.43092 1.80347,0.40864 3.64264,0.7402 5.49057,0.67195 1.84793,-0.0683 3.72065,-0.56192 5.2015,-1.66944 1.61563,-1.20832 2.66152,-3.08199 3.09584,-5.05218 0.51913,-2.35495 0.19745,-4.88629 -0.8942,-7.03654 -0.83441,-0.85767 -1.35012,-2.01861 -1.42713,-3.21272 -0.0665,-1.0316 0.19168,-2.08178 0.729,-2.96491 l 1e-5,0" />
            <g transform="matrix(-1,0,0,1,271.65794,3.5688046)" id="braid_right">
                <path
                      d=" m 125.30787,283.65415 -5.59829,-5.87275 -7.54517,-12.58012 -3.97241,-10.91411 -0.75756,-11.58981 3.56954,-9.20958 13.25423,-9.76812 1.06895,-9.28822 c 0.19384,-3.45121 1.39208,-6.84012 3.41066,-9.64615 3.21627,-4.47095 8.54617,-7.34872 14.0487,-7.5853 l 4.96111,-1.31129 1.6644,-9.01056 8.41189,-9.48885 22.44936,-55.1387 -10.84828,-42.030541 -36.76447,-33.092224 5.23556,-12.782341 7.18245,-6.074983 5.07827,-7.781114 12.30245,-6.949713 13.2173,-0.361123 10.63804,2.060844 9.13093,6.07017 3.68993,-4.803808 15.79817,2.654699 12.26713,7.895075 7.78432,15.953857 -0.79288,3.254972 6.35105,1.149194 6.78922,6.428089 5.64001,12.779138 -0.43335,11.034478 -1.70453,7.541965 3.77338,9.008955 3.13942,12.700491 -5.1168,11.75032 -7.30122,7.10701 2.97891,6.82613 -0.35471,8.53386 -3.56956,9.20957 -7.02355,6.51155 -5.39766,1.4702 2.26466,7.58048 -2.8152,9.92382 -5.9514,8.0989 -8.85005,4.20997 -2.61938,0.95337 0.20062,7.34295 -1.54563,7.97853 -6.98343,7.98013 -5.19865,3.37534 -6.86626,1.51033 -0.27607,6.03325 -2.14108,7.70087 -5.47631,3.9708 -8.17596,1.98701 -2.93718,0.0802 0.4783,6.74749 -2.02232,6.66884 -9.02356,8.51155 -3.71385,4.03486 -7.15609,14.314 c -1.50693,3.43903 -4.13565,6.37565 -7.38746,8.25277 -3.2518,1.87711 -7.10947,2.68477 -10.84116,2.26975 -3.52755,-0.39231 -6.92662,-1.87189 -9.61748,-4.18637"
                      id="braid_right_bg"/>
                <path
                      d="m 142.49662,88.258385 c 1.19374,-3.611142 2.99168,-6.594673 5.04839,-9.14601 2.05672,-2.551336 4.38127,-4.675118 6.80463,-6.496012 -1.72322,-2.433192 -3.21269,-5.376316 -4.22771,-8.671748 -1.01503,-3.295432 -1.5483,-6.938543 -1.49214,-10.675558 0.002,-0.122793 0.005,-0.245626 0.009,-0.368486 m 20.86335,14.834058 c 0.0205,0.03841 0.0411,0.07671 0.0618,0.114894 0.61659,1.159332 1.34778,2.235883 2.16995,3.215185 1.6026,1.964319 3.13472,3.224473 4.31214,4.095217 1.17743,0.870743 2.0121,1.352932 2.44869,1.695484 0.43658,0.342551 0.48014,0.544244 0.18017,0.792694 -0.29996,0.24845 -0.94254,0.541886 -1.81627,1.030253 m -22.50864,-6.061993 c 3.34909,4.695421 7.78269,7.873589 12.30157,8.907079 M 148.63844,52.900571 c -0.11404,0.04474 -0.22808,0.09015 -0.34213,0.136219 -8.9607,3.659647 -17.64841,11.20963 -23.31214,21.992711 -1.73246,3.228922 -2.92511,6.536723 -3.65207,9.796542 -0.72696,3.259818 -0.99,6.473107 -0.86772,9.57251 m 9.16666,-54.731746 c -0.0772,0.06941 -0.1541,0.139065 -0.23057,0.208974 -3.02549,2.847818 -5.33567,5.970577 -6.99258,9.202158 -1.6569,3.231581 -2.66342,6.575742 -3.09008,9.94867 -0.85334,6.745856 0.58429,13.629033 4.00289,20.194931 m 53.78612,-6.141815 c -0.024,-0.0089 -0.0482,-0.01791 -0.0726,-0.02688 -1.10437,-0.42118 -2.56062,-0.777081 -4.35088,-0.879291 m -23.98774,-19.35315 c 3.55552,-1.342875 7.00524,-1.823616 10.28255,-1.832129 3.27732,-0.0085 6.39156,0.459221 9.33212,1.194475 0.78712,-2.808948 2.09323,-5.750967 3.94871,-8.558278 1.85549,-2.80731 4.26136,-5.472211 7.10282,-7.763683 0.22083,-0.176465 0.44378,-0.350623 0.66871,-0.522436 m 1.6054,25.534607 c -0.0612,0.140553 -0.12032,0.281756 -0.17723,0.423589 -0.44994,1.11608 -0.78427,2.261824 -1.00604,3.415841 -0.51247,2.478795 -0.52265,4.461155 -0.45541,5.92399 0.0673,1.462835 0.21887,2.415943 0.22667,2.972518 0.008,0.556574 -0.12404,0.719776 -0.50973,0.645689 -0.3857,-0.07409 -1.02328,-0.385861 -1.95867,-0.754874 M 168.3103,52.182754 c -1.53766,5.559139 -1.21554,11.007061 0.81348,15.173827 m 10.90676,-32.018224 c -0.24593,-0.141158 -0.49466,-0.280308 -0.74619,-0.417391 -8.43927,-4.494239 -19.60268,-6.376904 -31.34276,-4.030146 -3.59832,0.68634 -6.91704,1.840805 -9.90444,3.325948 -2.98739,1.485144 -5.64571,3.300511 -7.97241,5.342789 m 48.28599,-27.308358 c -0.31629,-0.05501 -0.63225,-0.105783 -0.9478,-0.152383 -4.04535,-0.47237 -7.85172,-0.243792 -11.33738,0.540413 -3.48566,0.784204 -6.65498,2.124215 -9.48941,3.917894 -5.66884,3.587356 -10.03146,8.982107 -12.93682,15.679326 m 38.6297,37.905524 c -0.0329,-0.08244 -0.0668,-0.166338 -0.10186,-0.251638 -0.37114,-1.086204 -0.99193,-2.371505 -1.97516,-3.743534 m -0.0637,-30.814058 c 3.26394,1.928742 5.79577,4.283608 7.88294,6.799144 2.08716,2.515537 3.73019,5.200291 5.11926,7.93868 2.40436,-1.074011 5.14449,-1.927757 8.08708,-2.452641 2.94259,-0.524883 6.08459,-0.718726 9.24874,-0.541643 1.01969,0.05555 2.04052,0.145784 3.05705,0.267956 m -17.03402,19.058676 c -0.69093,0.177493 -1.36683,0.385131 -2.02593,0.62334 -0.70244,0.266754 -1.38513,0.562083 -2.0451,0.883914 -2.46041,1.150046 -4.20152,2.301643 -5.46659,3.190907 -1.26507,0.889265 -2.05781,1.524509 -2.61075,1.824235 -0.55294,0.299726 -0.86609,0.267697 -1.13584,-0.08372 -0.26974,-0.351414 -0.49449,-1.021414 -0.84798,-1.936928 m 10.77334,-20.834099 c -5.30675,2.391964 -9.39252,6.000448 -11.43527,10.267991 m 31.82814,-12.994319 c -0.24816,-0.999008 -0.53248,-2.003869 -0.85469,-3.013528 -2.69556,-8.325542 -8.03247,-16.735227 -16.32391,-23.504915 -2.74288,-2.280953 -5.6623,-4.080811 -8.6354,-5.446118 -2.9731,-1.365306 -6.0005,-2.297689 -9.00726,-2.855075 m 50.06613,17.429425 c -0.69492,-1.037384 -1.43188,-2.018814 -2.20549,-2.944322 -2.16863,-2.558451 -4.60058,-4.609799 -7.20209,-6.187245 -2.60151,-1.577446 -5.37409,-2.682652 -8.26282,-3.354939 -5.77746,-1.344573 -12.03303,-0.980635 -18.4272,0.952244 M 190.3394,73.35488 c 0.0679,-0.454583 0.1442,-0.941614 0.22078,-1.462684 0.17456,-0.948708 0.34287,-2.048825 0.4501,-3.299648 m 22.58328,-21.185409 c 0.84506,3.590247 1.01596,6.997795 0.84834,10.265175 -0.16762,3.267381 -0.67765,6.398495 -1.32852,9.470677 4.55286,1.412034 9.43286,3.825004 13.89143,7.01073 1.3992,0.999186 2.75878,2.065266 4.06677,3.177313 m -24.80987,6.040739 c -1.21654,-0.57492 -2.44821,-1.072835 -3.6924,-1.48857 -0.22199,-0.07274 -0.44396,-0.143105 -0.66586,-0.211083 -2.79752,-0.913708 -5.0337,-1.455661 -6.75967,-1.908126 -1.72597,-0.452465 -2.94676,-0.81317 -3.77964,-1.260896 -0.83288,-0.447725 -1.27916,-0.980492 -1.47654,-1.705833 -0.19738,-0.725341 -0.14514,-1.641902 0.002,-2.811275 m 23.2237,-6.842999 c -5.69812,-1.746286 -11.29956,-2.149839 -16.18488,-1.054093 m 34.14308,11.242136 c 0.63523,-1.6144 1.21462,-3.284344 1.73244,-5.011731 2.22238,-7.512648 3.12941,-16.01603 1.99245,-25.065785 -0.76937,-6.630295 -2.99113,-12.285373 -5.9998,-16.883516 m 24.66873,41.285382 c 0.081,-2.002981 -0.0192,-3.932652 -0.28256,-5.782345 -0.79198,-5.289587 -3.01476,-9.789808 -6.31599,-13.535739 -3.30123,-3.745931 -7.69188,-6.763409 -12.98317,-9.056832 m -36.62009,42.328186 c 0.50211,-0.794725 1.08594,-1.649324 1.72371,-2.592381 0.40788,-0.581105 0.84184,-1.202502 1.29339,-1.870283 m 30.8124,-3.726651 c -1.35735,3.332269 -3.07089,6.227193 -4.93903,8.907784 -1.86815,2.680591 -3.89404,5.146595 -5.97154,7.591311 2.14373,2.373398 4.24845,5.09008 6.19798,8.021816 1.94953,2.93173 3.7426,6.07588 5.30834,9.24331 m -25.22755,-4.70007 c -1.00713,-1.36229 -2.05016,-2.66406 -3.1248,-3.8968 -2.04056,-2.43571 -3.7123,-4.346091 -4.9869,-5.950514 -1.2746,-1.604422 -2.15439,-2.90348 -2.66557,-4.077138 -1.02236,-2.347316 -0.54805,-4.212976 0.86158,-6.644945 m 23.63692,8.004341 c -4.09319,-4.501365 -8.60597,-8.122784 -13.3762,-10.533436 m 24.88252,27.798562 c 6.61246,-6.26233 12.64319,-13.949689 17.22151,-23.350452 2.77994,-5.56725 4.08534,-10.921831 4.33584,-15.850627 m 1.30467,43.243329 c 2.87374,-5.32928 3.64304,-10.59588 2.7927,-15.731304 -0.85033,-5.135422 -3.31132,-10.178703 -7.11703,-15.193091 m -52.93338,20.517335 c 1.33823,-1.14435 2.98062,-2.3196 4.86408,-3.6613 m 29.51548,10.11308 c -1.30492,1.20727 -2.64048,2.30287 -3.99183,3.32105 -4.02775,3.03383 -8.17357,5.41342 -12.36295,7.94633 2.39606,6.07534 4.42083,13.12754 5.95507,19.87029 m -23.20915,-10.8955 c -0.55165,-1.70894 -1.13199,-3.38762 -1.74425,-5.03002 -1.88752,-5.38719 -3.05328,-9.22302 -3.36764,-12.23193 -0.31436,-3.00892 0.22248,-5.19257 1.57987,-7.17227 0.51938,-0.76526 1.17967,-1.50038 1.97059,-2.23985 m 18.81551,17.69928 c -1.71039,-4.29499 -3.66884,-8.35736 -5.92802,-12.0919 -0.78378,-1.27563 -1.59762,-2.51255 -2.43881,-3.70523 m 14.3219,35.66742 c 7.84159,-4.17377 15.58736,-9.11716 23.04946,-15.45975 2.75665,-2.29476 5.0313,-4.6505 6.88827,-7.02392 1.17741,-1.50015 2.1752,-3.00834 3.00966,-4.51726 m -11.86223,36.66894 c 3.75743,-3.79427 5.72245,-7.94785 6.32812,-12.51323 0.60566,-4.56538 -0.13526,-9.55734 -1.91402,-15.11644 m -57.15273,3.14636 c 1.74063,-1.04671 3.76893,-2.00852 6.06466,-3.01163 m 25.5529,17.90433 c -4.7807,2.47552 -9.54251,4.14256 -14.3168,5.97164 -1.35107,0.51375 -2.70111,1.03501 -4.05244,1.58106 1.27295,6.52976 2.2939,13.79396 2.92762,20.73267 m -21.15084,-14.06962 c -0.32649,-1.80423 -0.67729,-3.59235 -1.05217,-5.36401 -1.36336,-7.10633 -1.76351,-11.96918 -0.88768,-15.66259 0.94074,-3.68195 2.99376,-6.14963 6.12587,-8.22787 m 14.0372,22.59142 c -0.27852,-1.40424 -0.57121,-2.79883 -0.87795,-4.18363 -1.01919,-4.78082 -2.17551,-9.46672 -3.52813,-13.95072 m 7.3337,38.86702 c 7.79597,-2.95263 15.70278,-6.4186 23.68573,-10.40464 0.34998,-0.1692 0.70005,-0.33969 1.05018,-0.51154 4.92488,-2.35281 8.66583,-4.93132 11.47659,-7.71229 m -16.96813,31.18035 c 3.54441,-2.73588 5.85624,-5.78517 7.22354,-9.19913 1.36729,-3.41396 1.79357,-7.19808 1.5617,-11.46441 -0.10426,-1.42365 -0.28273,-2.91582 -0.52603,-4.48097 m -56.35554,-6.55187 c 1.80841,-0.84721 3.90439,-1.58924 6.29247,-2.33882 m 22.51481,21.5556 c -6.36086,2.32633 -12.4558,3.45883 -18.63932,5.12484 0.42696,6.7766 0.52467,14.27777 0.28982,21.41252 m -18.66612,-17.17188 c -0.0913,-1.87172 -0.20785,-3.72929 -0.34937,-5.57235 -0.42202,-7.19758 -0.22202,-12.08962 1.00233,-15.66726 1.22436,-3.57763 3.45429,-5.8265 6.80984,-7.59196 m 10.9135,24.59093 c -0.42605,-6.44321 -1.13871,-12.7205 -2.12903,-18.81837 m 2.41885,40.23089 c 8.22229,-2.02397 16.61028,-4.60688 25.12444,-7.75637 5.09425,-1.82121 9.06693,-3.94124 12.16481,-6.286 m -20.27519,29.41302 c 4.38176,-2.70451 7.1807,-6.06882 8.86138,-10.12215 1.68068,-4.05333 2.25132,-8.80645 2.159,-14.38307 m -53.5028,-14.24096 c 1.85211,-0.60429 3.96752,-1.06284 6.36374,-1.48976 m 19.05276,24.93263 c -6.06003,1.41459 -11.77113,1.7715 -17.59771,2.5179 -0.39729,0.0113 -0.79622,0.0264 -1.19691,0.0456 -0.72902,3.20132 -1.32223,6.53753 -1.74512,9.86787 -0.42288,3.33035 -0.6759,6.65392 -0.77348,9.83127 m -19.76553,-16.49832 c 0.19752,-1.98862 0.44635,-3.98072 0.74806,-5.97334 1.11111,-6.46018 3.1993,-11.35946 5.92181,-14.96318 1.60877,-4.66615 4.25179,-7.08573 8.3036,-8.62663 m 7.31066,26.36233 c 0.0785,-0.35051 0.15893,-0.70089 0.24133,-1.05111 0.33032,-6.21562 0.39764,-12.30301 0.20943,-18.25089 m -2.96936,39.00114 c 7.21101,-1.08643 14.36788,-1.48459 21.29239,-1.24884 1.41776,-0.3107 2.84042,-0.63698 4.2678,-0.97885 5.13436,-1.1671 9.21672,-2.79228 12.48087,-4.76294 m -20.02263,21.77327 c 2.8042,-0.96795 4.76897,-2.17984 6.18678,-3.79304 1.41781,-1.61319 2.28704,-3.62403 2.91699,-6.10381 0.65657,-2.46667 1.10695,-5.17189 1.4111,-8.12476 m -55.4999,-19.22481 c 2.5087,-0.9978 5.31836,-1.75012 8.42721,-2.31159 m 18.48528,24.83233 c -3.37186,0.47482 -6.68737,0.90372 -10.00894,1.47017 -3.32157,0.56644 -6.65029,1.27037 -10.01713,2.34717 0.32868,6.32899 1.21297,12.95955 2.52148,18.96079 0.11181,0.49158 0.22687,0.97838 0.34493,1.46 M 126.0155,232.37734 c -0.077,-0.52299 -0.15059,-1.04792 -0.22062,-1.57478 -0.24765,-1.54944 -0.4693,-3.10959 -0.66428,-4.67919 -0.43322,-4.10593 -0.38418,-7.74289 0.0522,-10.93111 0.43635,-3.18821 1.26051,-5.92949 2.41465,-8.27894 2.30828,-4.69891 5.91983,-7.83509 10.67654,-9.95734 m 7.68207,26.62888 c -0.36013,-6.51297 -0.19319,-13.17286 0.56037,-19.86518 m 2.30604,40.28597 c 0.45342,-0.19658 0.90717,-0.38882 1.36119,-0.57672 7.2976,-3.07026 14.82381,-5.22834 22.3227,-6.55228 4.77462,-0.79093 8.39586,-1.51422 11.22535,-2.46649 m -14.18757,19.94081 c 0.26332,-0.16886 0.51499,-0.33794 0.7554,-0.50779 2.84372,-2.07654 4.33434,-4.30538 4.96601,-7.13076 0.63166,-2.82539 0.4006,-6.23578 -0.0615,-10.50388 m -57.48516,-8.02343 c 0.39183,-0.31826 0.79518,-0.63055 1.20991,-0.93719 1.77844,-1.29233 3.78768,-2.47446 6.02073,-3.57511 m 23.83823,20.40178 c -2.99659,1.26279 -5.96931,2.50357 -8.92568,3.91203 -2.95636,1.40845 -5.89735,2.98508 -8.7879,4.96673 1.11261,3.32282 2.41731,6.65679 3.86811,9.85209 1.4508,3.19529 3.04685,6.25136 4.7,9.05785 m -25.20029,-4.54297 c -0.90349,-1.90956 -1.76384,-3.86178 -2.57823,-5.85487 -1.52543,-3.93776 -2.44116,-7.59373 -2.85624,-10.935 -0.41507,-3.34128 -0.32949,-6.36986 0.17761,-9.10608 1.0142,-5.47245 3.69566,-9.7728 7.70635,-13.31883 m 14.18269,24.84781 c -2.13601,-6.31124 -3.73872,-13.04134 -4.69969,-20.12063 m 13.2678,39.03057 c 6.37781,-5.41208 13.17968,-9.72256 20.09274,-12.86005 4.15692,-1.83082 7.22303,-3.2376 9.49241,-4.66803 m -6.75247,21.44489 c 2.33875,-2.78092 3.17109,-5.20233 2.92049,-7.99862 -0.2506,-2.7963 -1.5873,-5.94715 -3.3845,-10.00817 m -56.72526,7.9308 c 1.54757,-2.26461 3.47353,-4.45714 5.74454,-6.61669 m 28.59876,12.85211 c -2.50511,2.0818 -4.99692,4.12691 -7.42578,6.32476 -2.42885,2.19784 -4.79573,4.54892 -6.9977,7.27481 2.01758,2.86559 4.22161,5.68822 6.52762,8.33204 2.30602,2.64381 4.71316,5.10826 7.10731,7.30862 m -25.43177,2.94278 c -1.41707,-1.57774 -2.8039,-3.20945 -4.15767,-4.89334 -2.59464,-3.35099 -4.52139,-6.60416 -5.87815,-9.69301 -1.35676,-3.08886 -2.14398,-6.01564 -2.44431,-8.77783 -0.60066,-5.52437 0.72938,-10.38266 3.54205,-14.89394 m 20.73492,19.67468 c -3.85389,-5.4363 -7.31938,-11.42218 -10.28801,-17.88798 m 23.92294,33.52864 c 4.53774,-7.00619 9.8296,-13.04651 15.56273,-18.04961 3.46333,-2.9548 6.00132,-5.20987 7.76386,-7.27158 m -0.34183,22.46445 c 1.43361,-3.28462 1.54056,-5.81023 0.50407,-8.40416 -1.03649,-2.59392 -3.21239,-5.23499 -6.09492,-8.62789 m -52.05612,23.93359 c 0.82598,-2.63831 2.03724,-5.31052 3.59017,-8.04405"
                      id="braid_right_line"/>
                <path
                      d="m 229.31543,133.25267 c -2.266,2.85767 -5.0703,5.28701 -8.22182,7.12249 -3.91426,2.27971 -8.36283,3.63518 -12.88325,3.9255 l -4.7094,-8.61255 -8.67975,-22.68247 c -16.98092,-3.66236 -33.91887,-7.52395 -50.8092,-11.58369 -10.65765,-2.561662 -21.29633,-5.202218 -31.91489,-7.921379 l -4.55927,-45.15189 38.4747,-23.209348 22.03926,1.821613 7.46062,1.584277 c 5.95692,5.244411 11.76284,10.660347 17.40812,16.238836 6.37444,6.299012 12.54405,12.805293 18.49582,19.505103 l 0.26503,5.138385 22.16869,36.751133 -4.07253,4.43808 -2.06259,1.22436 -15.31389,-23.093383 -3.73031,0 20.64466,44.504933"
                      id="braid_right_head_patch_bg"/>
            </g>
            <g transform="matrix(-1,0,0,1,269.91231,7.1080494)" id="headband_right">
                <path
                      id="path3769-6-4-9-6-7-8-4"
                      d="m 116.28753,23.649038 1.03026,4.892704 c 3.28575,-0.769129 6.7434,-0.911487 10.10899,-0.406116 4.01246,0.586973 7.94369,2.140133 11.68016,4.136432 0,10e-7 0,10e-7 0,2e-6 6.74424,3.610755 12.72737,8.720257 18.23668,14.30596 0,10e-7 0,3e-6 0,4e-6 6.45699,6.562114 12.26154,13.794743 17.17011,21.61812 8.23677,13.125919 13.9267,27.923851 16.60435,43.313726 -2.0493,-15.486073 -7.14901,-30.626967 -14.96855,-44.294012 -4.6603,-8.144061 -10.26871,-15.756191 -16.5932,-22.727587 0,-2e-6 0,-3e-6 -1e-5,-5e-6 -5.38487,-5.94946 -11.40671,-11.512488 -18.47508,-15.709086 -3.91829,-2.330423 -8.22807,-4.216837 -12.88028,-5.126266 -3.91251,-0.751568 -7.97183,-0.756629 -11.91343,-0.0039 z" />
                <path
                      id="path3769-6-4-9-6-7-7-6-2"
                      d="m 97.971954,39.930189 1.083072,4.881286 c 3.264574,-0.787314 6.713194,-0.914902 10.050684,-0.362755 3.97554,0.63409 7.87154,2.304326 11.72873,4.214622 18.61165,9.301976 34.50028,24.294145 44.92299,42.546192 0,10e-7 0,2e-6 0,3e-6 10.42456,18.251043 15.36758,39.737883 13.89543,60.916773 2.16956,-21.11885 -2.04182,-42.96761 -12.05479,-61.927707 0,-3e-6 0,-5e-6 -1e-5,-7e-6 C 157.58325,71.239515 141.81248,55.25653 122.7754,44.938782 c 0,-2e-6 0,-3e-6 0,-4e-6 -3.93158,-2.148628 -8.16911,-4.094045 -12.83171,-5.048074 -3.93166,-0.784285 -8.02081,-0.774195 -11.971736,0.03948 z" />
            </g>
            <path
                  d="m 43.509513,117.15714 c 4.513415,-4.63821 9.178206,-9.12912 13.984448,-13.46316 6.226651,-5.614903 12.690764,-10.96646 19.369269,-16.035571 3.129829,-1.961354 5.625596,-4.917718 7.034084,-8.332231 1.179297,-2.858899 1.599222,-6.027048 1.205433,-9.094453"
                  class="braid_right_line_addition"/>
            <path
                  d="m 72.812142,137.22456 8.70533,-27.91818 C 82.845699,103.17441 84.522589,97.117983 86.537343,91.176098 90.245441,80.240224 95.10078,69.69374 100.99793,59.765651"
                  class="braid_right_line_addition"/>
            <path
                  d="m 59.556235,70.468274 14.618609,0.565361 c 8.074418,0.607089 16.343017,-1.877218 22.74577,-6.833984 5.595706,-4.331982 9.741146,-10.505353 11.633296,-17.32428"
                  class="braid_right_line_addition"/>
            <path
                  d="m 73.334308,51.835677 c 7.141867,1.500024 14.584834,1.551395 21.746726,0.150096 9.112026,-1.782862 18.053346,-6.185789 23.485496,-13.715683 2.56263,-3.552246 4.27362,-7.714531 4.95015,-12.042097"
                  class="braid_right_line_addition"/>
            <path
                  d="M 46.401417,91.162187 56.98531,103.08979"
                  class="braid_right_line_addition"/>
            <path
                  d="m 51.663169,144.69803 20.495702,-33.55868 c 1.738804,-2.35147 3.348999,-4.79804 4.820989,-7.32511 0.668557,-1.14776 1.311165,-2.3176 1.772657,-3.56313 0.461492,-1.245528 0.738648,-2.57561 0.654059,-3.901192 -0.08475,-1.328056 -0.53822,-2.630685 -1.296501,-3.724269 -0.75828,-1.093584 -1.819208,-1.97501 -3.033236,-2.520034"
                  class="braid_right_line_addition"/>
            <path
                  d="m 35.016818,109.68982 c 2.475227,3.22666 5.409455,6.10066 8.686743,8.50845 5.63041,4.1366 12.279842,6.87536 19.190322,7.90408"
                  class="braid_right_line_addition"/>
        </g>
        <g transform="translate(0,-0.48297291)" id="hair_head_goggle_left">
            <path id="left_head" d="m 160.30072,168.0791 2.22444,-2.01243 c 0.72205,-0.64049 1.53107,-1.18281 2.39785,-1.6074 0.41563,-0.20359 0.85846,-0.39038 1.16481,-0.7373 0.28386,-0.32146 0.42019,-0.75274 0.45161,-1.18044 0.0314,-0.4277 -0.0344,-0.85628 -0.11294,-1.27788 -0.16931,-0.90915 -0.4086,-1.82969 -0.9373,-2.58844 -0.49127,-0.70504 -1.22417,-1.23835 -2.04615,-1.48891 l -4.14267,-1.78242 1.65587,-0.32972 c 1.09884,-0.1402 2.18166,-0.40549 3.22086,-0.78912 0.68366,-0.25238 1.34846,-0.55584 1.98702,-0.90701 0.54571,-0.24631 1.00058,-0.68836 1.26241,-1.22679 0.35014,-0.72004 0.34375,-1.5903 0.041,-2.33152 -0.2033,-0.49773 -0.5295,-0.93682 -0.89357,-1.33244 -0.36408,-0.39561 -0.76788,-0.75228 -1.15425,-1.12615 -0.61606,-0.59614 -1.19704,-1.24951 -1.56087,-2.02575 -0.18191,-0.38812 -0.30733,-0.80475 -0.34711,-1.23153 -0.0398,-0.42679 0.008,-0.86396 0.15915,-1.26489 0.16839,-0.44534 0.46222,-0.8377 0.81857,-1.15344 0.35634,-0.31575 0.77406,-0.55722 1.21202,-0.74397 0.87591,-0.37349 1.82567,-0.53011 2.74929,-0.76174 1.90419,-0.47754 3.78473,-1.32991 5.0642,-2.81885 0.97709,-1.13705 1.55231,-2.61335 1.5988,-4.11183 0.0392,-1.26217 -0.28739,-2.51896 -0.82531,-3.66144 -0.53792,-1.14247 -1.28245,-2.17735 -2.10142,-3.13855 -1.63792,-1.9224 -3.58923,-3.57878 -5.05787,-5.63342 -1.86063,-2.60304 -2.86199,-5.73948 -3.34923,-8.90182 -0.37234,-2.41659 -0.4589,-4.89115 -0.0689,-7.30495 0.41169,-2.54808 1.34287,-4.977733 2.08166,-7.450873 0.73879,-2.473139 1.29116,-5.07192 0.91597,-7.625633 -0.1618,-1.101268 -0.49312,-2.170222 -0.70773,-3.262426 -0.21462,-1.092205 -0.30931,-2.238066 3.6e-4,-3.307214 0.30741,-1.061351 0.98861,-1.969715 1.45555,-2.97118 0.65891,-1.413198 0.88079,-2.990912 0.9588,-4.54822 0.15902,-3.174378 -0.24636,-6.346405 -0.61826,-9.50293 -0.53254,-4.519993 -1.03041,-9.160866 -3.07754,-13.22574 -2.7432,-5.447029 -7.92391,-9.199801 -13.06465,-12.481271 -4.60664,-2.940541 -9.3568,-5.689878 -14.39946,-7.796893 -8.37122,-3.497811 -17.43851,-5.168077 -26.50423,-5.521292 -6.17594,-0.240624 -12.370796,0.119875 -18.491289,0.979908 -5.690888,0.799666 -11.327233,2.032782 -16.78777,3.823928 -2.689053,0.882054 -5.339336,1.901223 -7.85671,3.194224 -4.286988,2.20193 -8.141479,5.175005 -11.66855,8.459292 -3.77325,3.51352 -7.199482,7.401593 -10.18754,11.60323 -3.1378,4.412195 -5.783966,9.155085 -8.23267,13.983864 -2.237396,4.412086 -4.320247,8.916467 -5.88239,13.61031 -0.806024,2.421898 -1.472784,4.894232 -1.89069,7.41229 -0.599355,3.611364 -0.682773,7.297913 -0.40851,10.948386 0.351133,4.67362 1.289189,9.30646 2.83709,13.73026 2.121518,6.06316 5.354889,11.66396 8.48846,17.27141 2.677942,4.79211 5.339698,9.67794 9.12662,13.65223 2.880012,3.02251 6.334159,5.43428 9.39695,8.27141 1.05461,0.97691 2.06259,2.00416 3.01936,3.07707 0.377347,1.08662 0.634366,2.21497 0.76485,3.35782 0.56932,4.9864 -1.268705,9.90844 -3.23945,14.52412 -2.016597,4.72307 -4.263214,9.45599 -7.7585,13.21858 -1.914312,2.06071 -4.159513,3.78136 -6.39537,5.48783 -2.535964,1.93552 -5.078892,3.86919 -7.7692,5.58372 -1.937145,1.23454 -3.947966,2.35346 -6.0182,3.34882 1.050291,0.1485 2.087621,0.38856 3.09637,0.71657 4.267392,1.3876 7.896216,4.31006 10.85794,7.68115 2.949975,3.35772 5.327474,7.20036 7.17177,11.27162 1.607999,3.54964 2.812544,7.26555 4.18175,10.91396 1.646367,4.38694 3.538749,8.69278 5.89459,12.74318 2.14013,3.67953 4.711459,7.193 8.11978,9.74299 2.319346,1.73525 4.97018,2.98309 7.31589,4.68254 1.746193,1.2651 3.33403,2.78651 5.279981,3.71546 0.972975,0.46447 2.03385,0.77286 3.111968,0.78173 1.078119,0.009 2.174824,-0.2967 3.026661,-0.9576 0.866925,-0.67261 1.440771,-1.68499 1.67349,-2.75728 0.227578,-1.0486 0.143058,-2.15066 -0.146397,-3.18389 -0.289455,-1.03323 -0.778449,-2.00204 -1.353829,-2.90774 -1.150759,-1.81139 -2.646732,-3.38348 -3.803854,-5.19082 -2.163345,-3.37899 -3.039281,-7.40348 -3.76576,-11.34934 -0.671727,-3.64848 -1.251179,-7.34379 -1.10454,-11.05069 0.192004,-4.85369 1.642394,-9.62493 3.97496,-13.88572 2.047986,-3.74096 4.747962,-7.07772 7.430019,-10.39368 3.370394,-4.16698 6.73703,-8.33733 10.16802,-12.45456 1.53679,-1.84417 3.09248,-3.68392 4.8721,-5.29503 1.77961,-1.61112 3.79996,-2.99607 6.06095,-3.80268 3.264,-1.16444 6.84741,-1.06612 10.27606,-0.56213 8.19133,1.20408 15.89456,4.60132 23.96922,6.43092 1.80347,0.40864 3.64264,0.7402 5.49057,0.67195 1.84793,-0.0683 3.72065,-0.56192 5.2015,-1.66944 1.61563,-1.20832 2.66152,-3.08199 3.09584,-5.05218 0.51913,-2.35495 0.19745,-4.88629 -0.8942,-7.03654 -0.83441,-0.85767 -1.35012,-2.01861 -1.42713,-3.21272 -0.0665,-1.0316 0.19168,-2.08178 0.729,-2.96491 l 1e-5,0" />
            <g transform="matrix(-1,0,0,1,271.65794,3.5688046)" id="braid_left">
                <path
                      d="m 125.30787,283.65415 -5.59829,-5.87275 -7.54517,-12.58012 -3.97241,-10.91411 -0.75756,-11.58981 3.56954,-9.20958 13.25423,-9.76812 1.06895,-9.28822 c 0.19384,-3.45121 1.39208,-6.84012 3.41066,-9.64615 3.21627,-4.47095 8.54617,-7.34872 14.0487,-7.5853 l 4.96111,-1.31129 1.6644,-9.01056 8.41189,-9.48885 22.44936,-55.1387 -10.84828,-42.030541 -36.76447,-33.092224 5.23556,-12.782341 7.18245,-6.074983 5.07827,-7.781114 12.30245,-6.949713 13.2173,-0.361123 10.63804,2.060844 9.13093,6.07017 3.68993,-4.803808 15.79817,2.654699 12.26713,7.895075 7.78432,15.953857 -0.79288,3.254972 6.35105,1.149194 6.78922,6.428089 5.64001,12.779138 -0.43335,11.034478 -1.70453,7.541965 3.77338,9.008955 3.13942,12.700491 -5.1168,11.75032 -7.30122,7.10701 2.97891,6.82613 -0.35471,8.53386 -3.56956,9.20957 -7.02355,6.51155 -5.39766,1.4702 2.26466,7.58048 -2.8152,9.92382 -5.9514,8.0989 -8.85005,4.20997 -2.61938,0.95337 0.20062,7.34295 -1.54563,7.97853 -6.98343,7.98013 -5.19865,3.37534 -6.86626,1.51033 -0.27607,6.03325 -2.14108,7.70087 -5.47631,3.9708 -8.17596,1.98701 -2.93718,0.0802 0.4783,6.74749 -2.02232,6.66884 -9.02356,8.51155 -3.71385,4.03486 -7.15609,14.314 c -1.50693,3.43903 -4.13565,6.37565 -7.38746,8.25277 -3.2518,1.87711 -7.10947,2.68477 -10.84116,2.26975 -3.52755,-0.39231 -6.92662,-1.87189 -9.61748,-4.18637"
                      id="braid_left_bg" />
                <path
                      d="m 142.49662,88.258385 c 1.19374,-3.611142 2.99168,-6.594673 5.04839,-9.14601 2.05672,-2.551336 4.38127,-4.675118 6.80463,-6.496012 -1.72322,-2.433192 -3.21269,-5.376316 -4.22771,-8.671748 -1.01503,-3.295432 -1.5483,-6.938543 -1.49214,-10.675558 0.002,-0.122793 0.005,-0.245626 0.009,-0.368486 m 20.86335,14.834058 c 0.0205,0.03841 0.0411,0.07671 0.0618,0.114894 0.61659,1.159332 1.34778,2.235883 2.16995,3.215185 1.6026,1.964319 3.13472,3.224473 4.31214,4.095217 1.17743,0.870743 2.0121,1.352932 2.44869,1.695484 0.43658,0.342551 0.48014,0.544244 0.18017,0.792694 -0.29996,0.24845 -0.94254,0.541886 -1.81627,1.030253 m -22.50864,-6.061993 c 3.34909,4.695421 7.78269,7.873589 12.30157,8.907079 M 148.63844,52.900571 c -0.11404,0.04474 -0.22808,0.09015 -0.34213,0.136219 -8.9607,3.659647 -17.64841,11.20963 -23.31214,21.992711 -1.73246,3.228922 -2.92511,6.536723 -3.65207,9.796542 -0.72696,3.259818 -0.99,6.473107 -0.86772,9.57251 m 9.16666,-54.731746 c -0.0772,0.06941 -0.1541,0.139065 -0.23057,0.208974 -3.02549,2.847818 -5.33567,5.970577 -6.99258,9.202158 -1.6569,3.231581 -2.66342,6.575742 -3.09008,9.94867 -0.85334,6.745856 0.58429,13.629033 4.00289,20.194931 m 53.78612,-6.141815 c -0.024,-0.0089 -0.0482,-0.01791 -0.0726,-0.02688 -1.10437,-0.42118 -2.56062,-0.777081 -4.35088,-0.879291 m -23.98774,-19.35315 c 3.55552,-1.342875 7.00524,-1.823616 10.28255,-1.832129 3.27732,-0.0085 6.39156,0.459221 9.33212,1.194475 0.78712,-2.808948 2.09323,-5.750967 3.94871,-8.558278 1.85549,-2.80731 4.26136,-5.472211 7.10282,-7.763683 0.22083,-0.176465 0.44378,-0.350623 0.66871,-0.522436 m 1.6054,25.534607 c -0.0612,0.140553 -0.12032,0.281756 -0.17723,0.423589 -0.44994,1.11608 -0.78427,2.261824 -1.00604,3.415841 -0.51247,2.478795 -0.52265,4.461155 -0.45541,5.92399 0.0673,1.462835 0.21887,2.415943 0.22667,2.972518 0.008,0.556574 -0.12404,0.719776 -0.50973,0.645689 -0.3857,-0.07409 -1.02328,-0.385861 -1.95867,-0.754874 M 168.3103,52.182754 c -1.53766,5.559139 -1.21554,11.007061 0.81348,15.173827 m 10.90676,-32.018224 c -0.24593,-0.141158 -0.49466,-0.280308 -0.74619,-0.417391 -8.43927,-4.494239 -19.60268,-6.376904 -31.34276,-4.030146 -3.59832,0.68634 -6.91704,1.840805 -9.90444,3.325948 -2.98739,1.485144 -5.64571,3.300511 -7.97241,5.342789 m 48.28599,-27.308358 c -0.31629,-0.05501 -0.63225,-0.105783 -0.9478,-0.152383 -4.04535,-0.47237 -7.85172,-0.243792 -11.33738,0.540413 -3.48566,0.784204 -6.65498,2.124215 -9.48941,3.917894 -5.66884,3.587356 -10.03146,8.982107 -12.93682,15.679326 m 38.6297,37.905524 c -0.0329,-0.08244 -0.0668,-0.166338 -0.10186,-0.251638 -0.37114,-1.086204 -0.99193,-2.371505 -1.97516,-3.743534 m -0.0637,-30.814058 c 3.26394,1.928742 5.79577,4.283608 7.88294,6.799144 2.08716,2.515537 3.73019,5.200291 5.11926,7.93868 2.40436,-1.074011 5.14449,-1.927757 8.08708,-2.452641 2.94259,-0.524883 6.08459,-0.718726 9.24874,-0.541643 1.01969,0.05555 2.04052,0.145784 3.05705,0.267956 m -17.03402,19.058676 c -0.69093,0.177493 -1.36683,0.385131 -2.02593,0.62334 -0.70244,0.266754 -1.38513,0.562083 -2.0451,0.883914 -2.46041,1.150046 -4.20152,2.301643 -5.46659,3.190907 -1.26507,0.889265 -2.05781,1.524509 -2.61075,1.824235 -0.55294,0.299726 -0.86609,0.267697 -1.13584,-0.08372 -0.26974,-0.351414 -0.49449,-1.021414 -0.84798,-1.936928 m 10.77334,-20.834099 c -5.30675,2.391964 -9.39252,6.000448 -11.43527,10.267991 m 31.82814,-12.994319 c -0.24816,-0.999008 -0.53248,-2.003869 -0.85469,-3.013528 -2.69556,-8.325542 -8.03247,-16.735227 -16.32391,-23.504915 -2.74288,-2.280953 -5.6623,-4.080811 -8.6354,-5.446118 -2.9731,-1.365306 -6.0005,-2.297689 -9.00726,-2.855075 m 50.06613,17.429425 c -0.69492,-1.037384 -1.43188,-2.018814 -2.20549,-2.944322 -2.16863,-2.558451 -4.60058,-4.609799 -7.20209,-6.187245 -2.60151,-1.577446 -5.37409,-2.682652 -8.26282,-3.354939 -5.77746,-1.344573 -12.03303,-0.980635 -18.4272,0.952244 M 190.3394,73.35488 c 0.0679,-0.454583 0.1442,-0.941614 0.22078,-1.462684 0.17456,-0.948708 0.34287,-2.048825 0.4501,-3.299648 m 22.58328,-21.185409 c 0.84506,3.590247 1.01596,6.997795 0.84834,10.265175 -0.16762,3.267381 -0.67765,6.398495 -1.32852,9.470677 4.55286,1.412034 9.43286,3.825004 13.89143,7.01073 1.3992,0.999186 2.75878,2.065266 4.06677,3.177313 m -24.80987,6.040739 c -1.21654,-0.57492 -2.44821,-1.072835 -3.6924,-1.48857 -0.22199,-0.07274 -0.44396,-0.143105 -0.66586,-0.211083 -2.79752,-0.913708 -5.0337,-1.455661 -6.75967,-1.908126 -1.72597,-0.452465 -2.94676,-0.81317 -3.77964,-1.260896 -0.83288,-0.447725 -1.27916,-0.980492 -1.47654,-1.705833 -0.19738,-0.725341 -0.14514,-1.641902 0.002,-2.811275 m 23.2237,-6.842999 c -5.69812,-1.746286 -11.29956,-2.149839 -16.18488,-1.054093 m 34.14308,11.242136 c 0.63523,-1.6144 1.21462,-3.284344 1.73244,-5.011731 2.22238,-7.512648 3.12941,-16.01603 1.99245,-25.065785 -0.76937,-6.630295 -2.99113,-12.285373 -5.9998,-16.883516 m 24.66873,41.285382 c 0.081,-2.002981 -0.0192,-3.932652 -0.28256,-5.782345 -0.79198,-5.289587 -3.01476,-9.789808 -6.31599,-13.535739 -3.30123,-3.745931 -7.69188,-6.763409 -12.98317,-9.056832 m -36.62009,42.328186 c 0.50211,-0.794725 1.08594,-1.649324 1.72371,-2.592381 0.40788,-0.581105 0.84184,-1.202502 1.29339,-1.870283 m 30.8124,-3.726651 c -1.35735,3.332269 -3.07089,6.227193 -4.93903,8.907784 -1.86815,2.680591 -3.89404,5.146595 -5.97154,7.591311 2.14373,2.373398 4.24845,5.09008 6.19798,8.021816 1.94953,2.93173 3.7426,6.07588 5.30834,9.24331 m -25.22755,-4.70007 c -1.00713,-1.36229 -2.05016,-2.66406 -3.1248,-3.8968 -2.04056,-2.43571 -3.7123,-4.346091 -4.9869,-5.950514 -1.2746,-1.604422 -2.15439,-2.90348 -2.66557,-4.077138 -1.02236,-2.347316 -0.54805,-4.212976 0.86158,-6.644945 m 23.63692,8.004341 c -4.09319,-4.501365 -8.60597,-8.122784 -13.3762,-10.533436 m 24.88252,27.798562 c 6.61246,-6.26233 12.64319,-13.949689 17.22151,-23.350452 2.77994,-5.56725 4.08534,-10.921831 4.33584,-15.850627 m 1.30467,43.243329 c 2.87374,-5.32928 3.64304,-10.59588 2.7927,-15.731304 -0.85033,-5.135422 -3.31132,-10.178703 -7.11703,-15.193091 m -52.93338,20.517335 c 1.33823,-1.14435 2.98062,-2.3196 4.86408,-3.6613 m 29.51548,10.11308 c -1.30492,1.20727 -2.64048,2.30287 -3.99183,3.32105 -4.02775,3.03383 -8.17357,5.41342 -12.36295,7.94633 2.39606,6.07534 4.42083,13.12754 5.95507,19.87029 m -23.20915,-10.8955 c -0.55165,-1.70894 -1.13199,-3.38762 -1.74425,-5.03002 -1.88752,-5.38719 -3.05328,-9.22302 -3.36764,-12.23193 -0.31436,-3.00892 0.22248,-5.19257 1.57987,-7.17227 0.51938,-0.76526 1.17967,-1.50038 1.97059,-2.23985 m 18.81551,17.69928 c -1.71039,-4.29499 -3.66884,-8.35736 -5.92802,-12.0919 -0.78378,-1.27563 -1.59762,-2.51255 -2.43881,-3.70523 m 14.3219,35.66742 c 7.84159,-4.17377 15.58736,-9.11716 23.04946,-15.45975 2.75665,-2.29476 5.0313,-4.6505 6.88827,-7.02392 1.17741,-1.50015 2.1752,-3.00834 3.00966,-4.51726 m -11.86223,36.66894 c 3.75743,-3.79427 5.72245,-7.94785 6.32812,-12.51323 0.60566,-4.56538 -0.13526,-9.55734 -1.91402,-15.11644 m -57.15273,3.14636 c 1.74063,-1.04671 3.76893,-2.00852 6.06466,-3.01163 m 25.5529,17.90433 c -4.7807,2.47552 -9.54251,4.14256 -14.3168,5.97164 -1.35107,0.51375 -2.70111,1.03501 -4.05244,1.58106 1.27295,6.52976 2.2939,13.79396 2.92762,20.73267 m -21.15084,-14.06962 c -0.32649,-1.80423 -0.67729,-3.59235 -1.05217,-5.36401 -1.36336,-7.10633 -1.76351,-11.96918 -0.88768,-15.66259 0.94074,-3.68195 2.99376,-6.14963 6.12587,-8.22787 m 14.0372,22.59142 c -0.27852,-1.40424 -0.57121,-2.79883 -0.87795,-4.18363 -1.01919,-4.78082 -2.17551,-9.46672 -3.52813,-13.95072 m 7.3337,38.86702 c 7.79597,-2.95263 15.70278,-6.4186 23.68573,-10.40464 0.34998,-0.1692 0.70005,-0.33969 1.05018,-0.51154 4.92488,-2.35281 8.66583,-4.93132 11.47659,-7.71229 m -16.96813,31.18035 c 3.54441,-2.73588 5.85624,-5.78517 7.22354,-9.19913 1.36729,-3.41396 1.79357,-7.19808 1.5617,-11.46441 -0.10426,-1.42365 -0.28273,-2.91582 -0.52603,-4.48097 m -56.35554,-6.55187 c 1.80841,-0.84721 3.90439,-1.58924 6.29247,-2.33882 m 22.51481,21.5556 c -6.36086,2.32633 -12.4558,3.45883 -18.63932,5.12484 0.42696,6.7766 0.52467,14.27777 0.28982,21.41252 m -18.66612,-17.17188 c -0.0913,-1.87172 -0.20785,-3.72929 -0.34937,-5.57235 -0.42202,-7.19758 -0.22202,-12.08962 1.00233,-15.66726 1.22436,-3.57763 3.45429,-5.8265 6.80984,-7.59196 m 10.9135,24.59093 c -0.42605,-6.44321 -1.13871,-12.7205 -2.12903,-18.81837 m 2.41885,40.23089 c 8.22229,-2.02397 16.61028,-4.60688 25.12444,-7.75637 5.09425,-1.82121 9.06693,-3.94124 12.16481,-6.286 m -20.27519,29.41302 c 4.38176,-2.70451 7.1807,-6.06882 8.86138,-10.12215 1.68068,-4.05333 2.25132,-8.80645 2.159,-14.38307 m -53.5028,-14.24096 c 1.85211,-0.60429 3.96752,-1.06284 6.36374,-1.48976 m 19.05276,24.93263 c -6.06003,1.41459 -11.77113,1.7715 -17.59771,2.5179 -0.39729,0.0113 -0.79622,0.0264 -1.19691,0.0456 -0.72902,3.20132 -1.32223,6.53753 -1.74512,9.86787 -0.42288,3.33035 -0.6759,6.65392 -0.77348,9.83127 m -19.76553,-16.49832 c 0.19752,-1.98862 0.44635,-3.98072 0.74806,-5.97334 1.11111,-6.46018 3.1993,-11.35946 5.92181,-14.96318 1.60877,-4.66615 4.25179,-7.08573 8.3036,-8.62663 m 7.31066,26.36233 c 0.0785,-0.35051 0.15893,-0.70089 0.24133,-1.05111 0.33032,-6.21562 0.39764,-12.30301 0.20943,-18.25089 m -2.96936,39.00114 c 7.21101,-1.08643 14.36788,-1.48459 21.29239,-1.24884 1.41776,-0.3107 2.84042,-0.63698 4.2678,-0.97885 5.13436,-1.1671 9.21672,-2.79228 12.48087,-4.76294 m -20.02263,21.77327 c 2.8042,-0.96795 4.76897,-2.17984 6.18678,-3.79304 1.41781,-1.61319 2.28704,-3.62403 2.91699,-6.10381 0.65657,-2.46667 1.10695,-5.17189 1.4111,-8.12476 m -55.4999,-19.22481 c 2.5087,-0.9978 5.31836,-1.75012 8.42721,-2.31159 m 18.48528,24.83233 c -3.37186,0.47482 -6.68737,0.90372 -10.00894,1.47017 -3.32157,0.56644 -6.65029,1.27037 -10.01713,2.34717 0.32868,6.32899 1.21297,12.95955 2.52148,18.96079 0.11181,0.49158 0.22687,0.97838 0.34493,1.46 M 126.0155,232.37734 c -0.077,-0.52299 -0.15059,-1.04792 -0.22062,-1.57478 -0.24765,-1.54944 -0.4693,-3.10959 -0.66428,-4.67919 -0.43322,-4.10593 -0.38418,-7.74289 0.0522,-10.93111 0.43635,-3.18821 1.26051,-5.92949 2.41465,-8.27894 2.30828,-4.69891 5.91983,-7.83509 10.67654,-9.95734 m 7.68207,26.62888 c -0.36013,-6.51297 -0.19319,-13.17286 0.56037,-19.86518 m 2.30604,40.28597 c 0.45342,-0.19658 0.90717,-0.38882 1.36119,-0.57672 7.2976,-3.07026 14.82381,-5.22834 22.3227,-6.55228 4.77462,-0.79093 8.39586,-1.51422 11.22535,-2.46649 m -14.18757,19.94081 c 0.26332,-0.16886 0.51499,-0.33794 0.7554,-0.50779 2.84372,-2.07654 4.33434,-4.30538 4.96601,-7.13076 0.63166,-2.82539 0.4006,-6.23578 -0.0615,-10.50388 m -57.48516,-8.02343 c 0.39183,-0.31826 0.79518,-0.63055 1.20991,-0.93719 1.77844,-1.29233 3.78768,-2.47446 6.02073,-3.57511 m 23.83823,20.40178 c -2.99659,1.26279 -5.96931,2.50357 -8.92568,3.91203 -2.95636,1.40845 -5.89735,2.98508 -8.7879,4.96673 1.11261,3.32282 2.41731,6.65679 3.86811,9.85209 1.4508,3.19529 3.04685,6.25136 4.7,9.05785 m -25.20029,-4.54297 c -0.90349,-1.90956 -1.76384,-3.86178 -2.57823,-5.85487 -1.52543,-3.93776 -2.44116,-7.59373 -2.85624,-10.935 -0.41507,-3.34128 -0.32949,-6.36986 0.17761,-9.10608 1.0142,-5.47245 3.69566,-9.7728 7.70635,-13.31883 m 14.18269,24.84781 c -2.13601,-6.31124 -3.73872,-13.04134 -4.69969,-20.12063 m 13.2678,39.03057 c 6.37781,-5.41208 13.17968,-9.72256 20.09274,-12.86005 4.15692,-1.83082 7.22303,-3.2376 9.49241,-4.66803 m -6.75247,21.44489 c 2.33875,-2.78092 3.17109,-5.20233 2.92049,-7.99862 -0.2506,-2.7963 -1.5873,-5.94715 -3.3845,-10.00817 m -56.72526,7.9308 c 1.54757,-2.26461 3.47353,-4.45714 5.74454,-6.61669 m 28.59876,12.85211 c -2.50511,2.0818 -4.99692,4.12691 -7.42578,6.32476 -2.42885,2.19784 -4.79573,4.54892 -6.9977,7.27481 2.01758,2.86559 4.22161,5.68822 6.52762,8.33204 2.30602,2.64381 4.71316,5.10826 7.10731,7.30862 m -25.43177,2.94278 c -1.41707,-1.57774 -2.8039,-3.20945 -4.15767,-4.89334 -2.59464,-3.35099 -4.52139,-6.60416 -5.87815,-9.69301 -1.35676,-3.08886 -2.14398,-6.01564 -2.44431,-8.77783 -0.60066,-5.52437 0.72938,-10.38266 3.54205,-14.89394 m 20.73492,19.67468 c -3.85389,-5.4363 -7.31938,-11.42218 -10.28801,-17.88798 m 23.92294,33.52864 c 4.53774,-7.00619 9.8296,-13.04651 15.56273,-18.04961 3.46333,-2.9548 6.00132,-5.20987 7.76386,-7.27158 m -0.34183,22.46445 c 1.43361,-3.28462 1.54056,-5.81023 0.50407,-8.40416 -1.03649,-2.59392 -3.21239,-5.23499 -6.09492,-8.62789 m -52.05612,23.93359 c 0.82598,-2.63831 2.03724,-5.31052 3.59017,-8.04405"
                      id="braid_left_line" />
                <path
                      d="m 229.31543,133.25267 c -2.266,2.85767 -5.0703,5.28701 -8.22182,7.12249 -3.91426,2.27971 -8.36283,3.63518 -12.88325,3.9255 l -4.7094,-8.61255 -8.67975,-22.68247 c -16.98092,-3.66236 -33.91887,-7.52395 -50.8092,-11.58369 -10.65765,-2.561662 -21.29633,-5.202218 -31.91489,-7.921379 l -4.55927,-45.15189 38.4747,-23.209348 22.03926,1.821613 7.46062,1.584277 c 5.95692,5.244411 11.76284,10.660347 17.40812,16.238836 6.37444,6.299012 12.54405,12.805293 18.49582,19.505103 l 0.26503,5.138385 22.16869,36.751133 -4.07253,4.43808 -2.06259,1.22436 -15.31389,-23.093383 -3.73031,0 20.64466,44.504933"
                      id="braid_left_head_patch_bg" />
            </g>
            <g transform="matrix(0.34659155,0,0,0.34659155,-65.629306,72.33764)" id="goggle">
                <path
                      d="m 700.97503,36.282363 c -5.34403,-5.091278 -11.7283,-9.085957 -18.64388,-11.6656 -6.22571,-2.322308 -12.9037,-3.500427 -19.5408,-3.18199 -6.36301,0.305286 -12.57236,1.962928 -18.74453,3.53946 -6.41514,1.638593 -12.86728,3.204356 -19.06845,5.5248 -4.27156,1.598395 -8.417,3.552383 -12.79179,4.84169 -3.20043,0.943209 -6.50595,1.525041 -9.65637,2.623807 -3.15041,1.098766 -6.21512,2.791852 -8.19955,5.474103 -1.18075,1.595968 -1.93116,3.477148 -2.41553,5.402422 -0.48437,1.925274 -0.71644,3.904784 -0.89287,5.882198 -0.35285,3.954827 -0.6449,7.915666 -1.14549,11.85452 l -2.38989,18.80449 -0.39662,13.18388 0.21975,25.281097 c 1.23769,5.63481 4.03026,10.91984 7.98792,15.11744 2.08071,2.20685 4.46102,4.10503 6.75795,6.08584 3.88962,3.3543 7.83711,6.65213 12.14901,9.44284 l 9.63203,6.23395 c 4.22626,2.73528 8.67448,5.20478 13.50677,6.61616 6.24805,1.82488 13.03384,2.16039 19.24552,0.21532 5.40309,-1.69188 10.1809,-5.03625 14.1883,-9.03582 3.93442,-3.92672 7.20129,-8.52064 9.6188,-13.52608 l 10.42268,-18.15956 7.73046,-9.67283 4.31895,-7.31636"
                      id="goggle_glass" />
                <path
                      d="m 708.36303,126.16395 c -0.76941,2.07776 -1.69431,4.09793 -2.7644,6.03804 -2.85706,5.17994 -6.4265,9.93022 -9.55159,14.95301 l -8.99358,14.45491 -6.56226,8.95223 -9.24313,8.40978 c -1.96107,1.78427 -4.02013,3.49579 -6.37916,4.70592 -2.35902,1.21012 -4.93252,1.93935 -7.51492,2.53986 -7.24841,1.68555 -14.66737,2.63679 -22.10655,2.83445 -2.52434,0.10198 -5.06156,-0.11928 -7.53015,-0.65666 -6.73088,-1.46524 -12.71799,-5.19986 -18.48515,-8.96702 -6.48642,-4.23699 -12.89523,-8.60064 -19.05928,-13.29428 -8.26037,-6.28989 -16.08524,-13.17977 -23.08242,-20.85022 -3.36811,-3.6922 -6.55579,-7.58219 -9.07979,-11.89565 -2.524,-4.31347 -4.37517,-9.07745 -4.92276,-14.04501 -0.45968,-4.17009 -0.0152,-8.38643 0.59557,-12.53708 0.61076,-4.15065 1.35194,-8.280919 2.03226,-12.420737 2.80293,-17.056103 5.78781,-34.082304 8.95396,-51.07473 0.74721,-4.010225 1.50452,-8.018568 2.27192,-12.02498 2.94158,-1.369823 5.91386,-2.673733 8.91385,-3.91042 5.33222,-2.198103 10.78258,-4.096639 16.27314,-5.86242 l 18.92368,-6.08592 c 6.62676,-1.877505 13.30804,-3.562588 20.03258,-5.05241 7.53624,-1.6696542 15.12682,-3.0940452 22.75567,-4.2701599 5.20473,-0.5744683 10.45589,-0.7276786 15.68526,-0.45764 7.37654,0.380916 14.70916,1.6057784 21.80902,3.64304 l 8.21282,6.6290899 6.94245,7.45146 1.31001,6.18353 -4.59566,1.76189 -3.2759,2.60695 3.13806,17.12195 0.0558,41.44521 c -0.051,3.455995 -0.045,6.912831 0.0181,10.368627 0.0542,2.9698 0.15051,5.93883 0.2889,8.9059 l 4.93365,14.39949"
                      id="goggle_outline" />
                <path
                      d="m 561.79999,33.897923 -43.08192,-1.31088"
                      id="goggle_band_top" />
                <path
                      d="m 549.49238,112.56217 -73.55458,-0.8266"
                      id="goggle_band_bottom" />
                <path
                      d="m 577.61538,131.37519 c -4.48255,-4.88628 -7.37176,-11.21142 -8.13017,-17.79882 -0.6155,-5.34607 0.1085,-10.75236 1.01373,-16.057062 0.90523,-5.304696 1.93482,-10.587615 2.82059,-15.895595 1.82165,-10.916169 3.52592,-21.851925 5.11242,-32.80474 0.2879,-1.987607 0.57193,-3.975775 0.85207,-5.96449"
                      id="goggle_accent" />
            </g>
            <g transform="matrix(-1,0,0,1,269.91231,7.1080494)" id="headband_left">
                <path
                      id="path3769-6-4-9-6-7-8-9"
                      d="m 116.28753,23.649038 1.03026,4.892704 c 3.28575,-0.769129 6.7434,-0.911487 10.10899,-0.406116 4.01246,0.586973 7.94369,2.140133 11.68016,4.136432 0,10e-7 0,10e-7 0,2e-6 6.74424,3.610755 12.72737,8.720257 18.23668,14.30596 0,10e-7 0,3e-6 0,4e-6 6.45699,6.562114 12.26154,13.794743 17.17011,21.61812 8.23677,13.125919 13.9267,27.923851 16.60435,43.313726 -2.0493,-15.486073 -7.14901,-30.626967 -14.96855,-44.294012 -4.6603,-8.144061 -10.26871,-15.756191 -16.5932,-22.727587 0,-2e-6 0,-3e-6 -1e-5,-5e-6 -5.38487,-5.94946 -11.40671,-11.512488 -18.47508,-15.709086 -3.91829,-2.330423 -8.22807,-4.216837 -12.88028,-5.126266 -3.91251,-0.751568 -7.97183,-0.756629 -11.91343,-0.0039 z" />
                <path
                      id="path3769-6-4-9-6-7-7-6-3"
                      d="m 97.971954,39.930189 1.083072,4.881286 c 3.264574,-0.787314 6.713194,-0.914902 10.050684,-0.362755 3.97554,0.63409 7.87154,2.304326 11.72873,4.214622 18.61165,9.301976 34.50028,24.294145 44.92299,42.546192 0,10e-7 0,2e-6 0,3e-6 10.42456,18.251043 15.36758,39.737883 13.89543,60.916773 2.16956,-21.11885 -2.04182,-42.96761 -12.05479,-61.927707 0,-3e-6 0,-5e-6 -1e-5,-7e-6 C 157.58325,71.239515 141.81248,55.25653 122.7754,44.938782 c 0,-2e-6 0,-3e-6 0,-4e-6 -3.93158,-2.148628 -8.16911,-4.094045 -12.83171,-5.048074 -3.93166,-0.784285 -8.02081,-0.774195 -11.971736,0.03948 z" />
            </g>
            <path
                  d="m 43.509513,117.15714 c 4.513415,-4.63821 9.178206,-9.12912 13.984448,-13.46316 6.226651,-5.614903 12.690764,-10.96646 19.369269,-16.035571 3.129829,-1.961354 5.625596,-4.917718 7.034084,-8.332231 1.179297,-2.858899 1.599222,-6.027048 1.205433,-9.094453"
                  class="braid_left_line_addition" />
            <path
                  d="m 72.812142,137.22456 8.70533,-27.91818 C 82.845699,103.17441 84.522589,97.117983 86.537343,91.176098 90.245441,80.240224 95.10078,69.69374 100.99793,59.765651"
                  class="braid_left_line_addition" />
            <path
                  d="m 59.556235,70.468274 14.618609,0.565361 c 8.074418,0.607089 16.343017,-1.877218 22.74577,-6.833984 5.595706,-4.331982 9.741146,-10.505353 11.633296,-17.32428"
                  class="braid_left_line_addition" />
            <path
                  d="m 73.334308,51.835677 c 7.141867,1.500024 14.584834,1.551395 21.746726,0.150096 9.112026,-1.782862 18.053346,-6.185789 23.485496,-13.715683 2.56263,-3.552246 4.27362,-7.714531 4.95015,-12.042097"
                  class="braid_left_line_addition" />
            <path
                  d="M 46.401417,91.162187 56.98531,103.08979"
                  class="braid_left_line_addition" />
            <path
                  d="m 51.663169,144.69803 20.495702,-33.55868 c 1.738804,-2.35147 3.348999,-4.79804 4.820989,-7.32511 0.668557,-1.14776 1.311165,-2.3176 1.772657,-3.56313 0.461492,-1.245528 0.738648,-2.57561 0.654059,-3.901192 -0.08475,-1.328056 -0.53822,-2.630685 -1.296501,-3.724269 -0.75828,-1.093584 -1.819208,-1.97501 -3.033236,-2.520034"
                  class="braid_left_line_addition" />
            <path
                  d="m 35.016818,109.68982 c 2.475227,3.22666 5.409455,6.10066 8.686743,8.50845 5.63041,4.1366 12.279842,6.87536 19.190322,7.90408"
                  class="braid_left_line_addition" />
        </g>
        <g transform="translate(147.69558,85.568805) matrix(0.36,0,0,0.36,26.571316,31.287752)" id="sunnglasses">
            <path
                  d="m 60.634077,-98.682268 13.66036,-2.141232 c 2.361317,-0.30695 4.742801,-0.45867 7.12398,-0.45386 2.972193,0.006 5.951505,0.25725 8.85412,0.89662 5.211625,1.14798 10.162123,3.576874 14.124283,7.151812 3.08387,2.782485 5.52994,6.203478 7.65582,9.77183 3.10781,5.216561 5.58097,10.803242 7.46467,16.57582 1.1484,3.519276 2.07849,7.106198 2.9315,10.70849 0.77251,3.262327 1.48337,6.544763 1.90285,9.87096 0.69422,5.504751 0.93634,11.059186 1.70327,16.55428 l 1.21512,8.70645 c 0.68966,4.941512 0.89778,9.937015 0.74043,14.9239402 -0.11571,3.6671251 -0.25505,7.3432256 -0.8093,10.97007 -0.67589,4.4227863 -1.96994,8.7506568 -3.83281,12.8185298 -1.23141,2.455333 -2.83762,4.722263 -4.74584,6.69805 -1.63917,1.697209 -3.49465,3.175614 -5.44497,4.50363 -1.67799,1.142578 -3.42959,2.17703 -5.24034,3.09481 -1.49416,0.252188 -3.0163,0.33825 -4.52937,0.25609 -2.58577,-0.140407 -5.117094,-0.767469 -7.676413,-1.16219 -2.84005,-0.438018 -5.769953,-0.602646 -8.42647,-1.69839 -2.135771,-0.88095 -3.988545,-2.323347 -5.74205,-3.82761 -3.580681,-3.071725 -6.874242,-6.477996 -9.82379,-10.15997"
                  id="sunglasses_line" />
            <path
                  id="sunglasses_glass"
                  d="m 61.062657,-97.152468 c 1.823322,-1.178794 3.838578,-2.059985 5.942,-2.5982 3.16222,-0.809132 6.522019,-0.833982 9.69586,-0.0717 1.722662,0.249184 3.454995,0.4315 5.19179,0.5464 2.964359,0.19611 5.966286,0.19927 8.85412,0.89662 3.791689,0.915611 7.235657,3.008786 10.096673,5.66017 3.0441,2.821054 5.45522,6.252994 7.65582,9.77184 2.90012,4.637418 5.4863,9.495465 7.32965,14.64507 1.24815,3.486864 2.14931,7.088516 2.9315,10.7085 0.70776,3.275511 1.3197,6.570987 1.90285,9.87096 0.96881,5.482371 1.85848,10.978727 2.66863,16.48678 l 1.21513,8.70645 c 0.22829,4.329782 0.4301,8.66096 0.60542,12.9932102 0.147,3.6324423 0.27539,7.2691121 0.1561,10.90257 -0.11755,3.5803892 -0.47586,7.1528542 -1.07172,10.6852698 -1.13936,2.276204 -2.40198,4.490704 -3.78048,6.63056 -1.51153,2.346361 -3.18373,4.626236 -5.30996,6.43435 -1.553,1.320645 -3.33399,2.372459 -5.24033,3.09481 -1.45896,0.502556 -2.95038,0.91084 -4.46188,1.22146 -1.8807,0.386492 -3.79247,0.621662 -5.710773,0.70249 -2.457664,0.184081 -4.946392,-0.0539 -7.32463,-0.70042 -1.612578,-0.438373 -3.171172,-1.062078 -4.67282,-1.79531 -1.307295,-0.638333 -2.573704,-1.360387 -3.78889,-2.16027 l -4.53991,-4.22983 C 77.770298,19.724578 76.192363,18.114186 74.969676,16.241218 73.746988,14.36825 72.863312,12.299537 71.968287,10.249682 69.952106,5.6320729 67.730966,1.1031062 65.848297,-3.5705278 c -2.818794,-6.9975172 -4.866173,-14.2917292 -6.3668,-21.6849002 -1.427331,-7.032066 -2.363893,-14.167337 -2.70448,-21.33471 -0.21585,-4.542378 -0.192461,-9.093681 -0.0443,-13.63877 0.138918,-4.261527 0.387424,-8.518608 0.62238,-12.77592 0.29886,-5.415234 0.578211,-10.851821 1.59704,-16.17874 0.516626,-2.701162 1.222419,-5.366125 2.1105,-7.96891 l 2e-5,1e-5" />
            <path
                  id="sunglasses_temple"
                  d="M 123.91803,-48.225042 270.32646,-49.01079" />
        </g>
    </g>
</svg>
